<svg width="1210" height="237" viewBox="0 0 1210 237" fill="none" xmlns="http://www.w3.org/2000/svg">
<g clip-path="url(#clip0_1839_3098)">
<mask id="mask0_1839_3098" style="mask-type:luminance" maskUnits="userSpaceOnUse" x="0" y="0" width="1210" height="237">
<path d="M1210 0H0V236.208H1210V0Z" fill="white"/>
</mask>
<g mask="url(#mask0_1839_3098)">
<path d="M92.2025 184.419C92.2025 186.945 93.4656 188.208 94.7286 190.735C95.9917 193.261 97.2547 194.524 99.7808 197.05C102.307 200.84 102.307 204.629 98.5178 208.419C97.2547 209.682 95.9917 210.945 94.7286 210.945C90.9395 212.208 88.4134 213.471 85.8873 214.734C83.3612 215.998 82.0981 217.261 80.8351 219.787C80.8351 221.05 79.572 222.313 77.0459 223.576C74.5198 224.84 73.2568 226.103 71.9937 228.629C70.7307 231.155 69.4676 233.682 68.2046 236.208C65.6785 236.208 63.1524 236.208 60.6263 236.208V234.945C63.1524 231.155 65.6785 226.103 69.4676 222.313C70.7307 221.05 70.7307 221.05 71.9937 219.787C73.2568 217.261 74.5198 215.998 75.7829 214.734C77.0459 213.471 78.309 213.471 79.572 212.208C83.3612 210.945 87.1503 208.419 89.6764 204.629C92.2025 202.103 92.2025 198.314 90.9395 194.524C89.6764 193.261 89.6764 191.998 88.4134 190.735C87.1503 188.208 84.6242 186.945 83.3612 184.419C77.0459 176.84 73.2568 169.261 73.2568 160.419C73.2568 160.419 73.2568 160.419 73.2568 159.156C56.8372 151.577 44.2067 138.946 35.3653 123.788C34.1023 123.788 34.1023 123.788 32.8392 123.788C27.7871 121.262 23.9979 118.736 20.2088 113.683L18.9457 112.42C17.6827 112.42 17.6827 113.683 16.4196 116.209C16.4196 117.472 16.4196 119.999 15.1566 121.262C13.8935 123.788 12.6305 126.314 13.8935 128.841C13.8935 128.841 13.8935 128.841 13.8935 130.104C16.4196 130.104 17.6827 130.104 18.9457 132.63C18.9457 136.42 16.4196 138.946 12.6305 140.209C12.6305 142.735 12.6305 145.262 11.3674 146.525C8.84134 145.262 6.31524 142.735 6.31524 140.209C5.05219 136.42 3.78914 133.893 1.26305 131.367C0 130.104 0 127.578 0 126.314C2.5261 118.736 3.78914 111.157 6.31524 103.578C7.57829 99.7884 11.3674 97.2621 15.1566 98.5252C17.6827 98.5252 20.2088 99.7884 22.7349 101.052C26.524 102.315 30.3132 102.315 35.3653 102.315C35.3653 101.052 35.3653 99.7884 36.6284 98.5252C36.6284 95.9989 37.8914 93.4727 41.6806 92.2095C42.9436 90.9464 44.2067 89.6832 45.4697 88.4201C46.7328 87.1569 47.9958 84.6306 47.9958 82.1044C47.9958 78.3149 46.7328 75.7886 42.9436 75.7886C40.4175 75.7886 39.1545 74.5255 37.8914 74.5255C36.6284 75.7886 36.6284 75.7886 36.6284 75.7886C32.8393 77.0518 30.3132 79.5781 27.7871 80.8412C26.524 82.1044 25.261 83.3675 23.9979 83.3675C21.4718 82.1044 20.2088 79.5781 20.2088 77.0518C20.2088 73.2623 21.4718 71.9992 23.9979 69.4729C23.9979 69.4729 25.261 69.4729 25.261 68.2098C27.7871 65.6835 30.3132 64.4203 31.5762 60.6309C35.3653 56.8415 37.8914 54.3152 41.6806 51.7889C45.4697 50.5258 46.7328 47.9995 45.4697 44.21C45.4697 42.9469 45.4697 40.4206 46.7328 39.1575C49.2589 40.4206 50.5219 44.21 51.785 45.4732C51.785 44.21 53.048 44.21 53.048 42.9469C54.3111 44.21 55.5741 45.4732 56.8372 47.9995C58.1002 47.9995 59.3633 46.7363 60.6263 46.7363C61.8894 46.7363 61.8894 47.9995 63.1524 47.9995C64.4155 47.9995 65.6785 49.2626 66.9416 49.2626C66.9416 49.2626 68.2046 50.5258 69.4676 51.7889C70.7307 51.7889 71.9937 53.052 74.5198 53.052C73.2568 53.052 71.9937 54.3152 71.9937 55.5783C73.2568 55.5783 73.2568 55.5783 73.2568 56.8415L74.5198 58.1046C73.2568 58.1046 73.2568 58.1046 73.2568 58.1046C77.0459 60.6309 79.572 63.1572 80.8351 66.9466C79.572 66.9466 78.309 65.6835 78.309 65.6835C77.0459 64.4203 77.0459 64.4203 75.7829 64.4203C78.309 68.2098 82.0981 70.7361 84.6242 74.5255C83.3612 74.5255 82.0981 73.2623 79.572 73.2623C80.8351 77.0518 83.3612 80.8412 85.8873 84.6306C83.3612 83.3675 82.0981 82.1044 79.572 80.8412C80.8351 82.1044 80.8351 83.3675 82.0981 84.6306C83.3612 85.8938 84.6242 87.1569 85.8873 89.6832C87.1503 92.2095 87.1503 94.7358 85.8873 97.2621C85.8873 93.4726 84.6242 90.9464 80.8351 89.6832C82.0981 93.4726 83.3612 97.2621 84.6242 99.7884C85.8873 102.315 85.8873 104.841 85.8873 107.367C85.8873 108.63 85.8873 111.157 83.3612 112.42C83.3612 108.63 82.0981 106.104 78.309 103.578C79.572 108.63 79.572 112.42 83.3612 116.209C87.1503 113.683 89.6764 111.157 90.9395 107.367C93.4656 102.315 94.7286 95.9989 94.7286 90.9464C94.7286 84.6306 94.7286 77.0518 93.4656 70.7361C93.4656 64.4203 93.4656 59.3678 98.5178 54.3152C101.044 50.5258 104.833 47.9995 108.622 44.21C114.937 39.1575 121.253 32.8417 126.305 27.7892C131.357 22.7366 135.146 15.1577 140.198 10.1052C141.461 7.57886 143.987 5.05258 145.251 3.78943C145.251 3.78943 145.251 3.78943 145.251 5.05258V6.31572C143.987 12.6314 141.461 18.9472 138.935 25.2629L140.198 23.9997C145.251 21.4734 147.777 17.684 151.566 12.6314C154.092 8.84201 157.881 5.05258 160.407 1.26314C160.407 0 161.67 0 162.933 0C161.67 8.84201 159.144 16.4209 155.355 25.2629C159.144 22.7366 162.933 18.9472 166.722 16.4209C166.722 23.9997 164.196 29.0523 160.407 34.1049C159.144 35.368 156.618 37.8943 155.355 39.1575C154.092 40.4206 154.092 41.6838 152.829 42.9469C159.144 40.4206 164.196 37.8943 170.511 35.368C167.985 44.21 161.67 50.5258 154.092 55.5783C157.881 55.5783 161.67 53.052 166.722 53.052C166.722 54.3152 166.722 54.3152 166.722 54.3152C164.196 58.1046 160.407 61.8941 155.355 63.1572C152.829 64.4203 151.566 64.4203 149.04 65.6835C147.777 66.9466 145.251 66.9466 143.987 68.2098C149.04 69.4729 154.092 68.2098 159.144 68.2098C157.881 70.7361 156.618 73.2623 154.092 74.5255C151.566 75.7886 147.777 77.0518 145.251 78.3149C142.724 78.3149 141.461 79.5781 138.935 79.5781C142.724 80.8412 146.514 80.8412 150.303 83.3675C149.04 85.8938 146.514 88.4201 143.987 88.4201C141.461 88.4201 138.935 88.4201 137.672 88.4201C136.409 88.4201 135.146 88.4201 133.883 88.4201C136.409 90.9464 138.935 90.9464 141.461 93.4727C140.198 97.2621 136.409 97.2621 133.883 97.2621C133.883 98.5252 133.883 98.5252 133.883 98.5252C133.883 101.052 132.62 102.315 131.357 103.578C130.094 104.841 128.831 106.104 128.831 107.367C125.042 109.894 122.516 112.42 119.99 113.683C117.463 114.946 116.2 116.209 113.674 117.472C108.622 121.262 103.57 123.788 95.9917 125.051C93.4656 125.051 89.6764 126.314 87.1503 126.314H88.4134C92.2025 126.314 95.9917 127.578 98.5178 128.841C101.044 130.104 102.307 131.367 104.833 132.63C109.885 136.42 113.674 140.209 116.2 146.525C117.463 149.051 117.463 150.314 118.727 152.84C119.99 155.367 121.253 156.63 122.516 157.893C126.305 159.156 128.831 161.682 132.62 165.472C136.409 170.524 138.935 175.577 141.461 180.63C142.724 183.156 142.724 186.945 143.987 189.472C142.724 188.208 140.198 185.682 138.935 184.419C138.935 189.472 140.198 193.261 140.198 198.314C141.461 203.366 142.724 207.156 143.987 212.208C140.198 209.682 138.935 207.156 136.409 203.366C135.146 208.419 132.62 213.471 131.357 218.524C130.094 214.734 130.094 212.208 128.831 209.682C127.568 210.945 126.305 210.945 125.042 212.208C126.305 204.629 126.305 195.787 123.779 188.208C123.779 189.472 123.779 189.472 122.516 190.735C122.516 183.156 123.779 176.84 121.253 169.261C119.99 169.261 119.99 169.261 118.727 169.261C118.727 167.998 118.727 166.735 118.727 166.735C118.727 166.735 117.463 166.735 117.463 167.998C116.2 170.524 114.937 173.051 112.411 175.577C111.148 178.103 109.885 180.63 109.885 183.156C109.885 185.682 109.885 188.208 111.148 190.735C112.411 194.524 113.674 198.314 117.463 200.84C118.727 202.103 118.727 203.366 118.727 204.629C117.463 207.156 117.463 208.419 114.937 209.682C112.411 210.945 109.885 212.208 107.359 213.471C102.307 215.998 97.2547 218.524 94.7286 223.576C92.2025 226.103 88.4134 227.366 83.3612 227.366C83.3612 228.629 84.6242 228.629 84.6242 229.892C85.8873 232.418 84.6242 234.945 80.8351 234.945C79.572 234.945 78.309 234.945 77.0459 234.945C74.5198 234.945 73.2568 234.945 70.7307 234.945C73.2568 229.892 74.5198 227.366 78.309 223.576C79.572 222.313 80.8351 221.05 82.0981 218.524C83.3612 215.998 84.6242 214.734 87.1503 213.471C89.6764 212.208 92.2025 210.945 94.7286 209.682C97.2547 208.419 99.7808 205.892 101.044 203.366C102.307 200.84 102.307 198.314 101.044 195.787C98.5177 191.998 94.7286 188.208 92.2025 184.419ZM121.253 40.4206C117.463 42.9469 113.674 46.7363 109.885 50.5258C107.359 51.7889 106.096 54.3152 103.57 56.8415C102.307 59.3678 102.307 61.8941 102.307 64.4203C102.307 68.2098 102.307 73.2623 102.307 77.0518C102.307 87.1569 101.044 95.9989 97.2547 106.104C93.4656 112.42 89.6764 116.209 84.6242 119.999C87.1503 119.999 88.4134 118.736 90.9395 117.472C93.4656 114.946 95.9917 111.157 97.2547 107.367C101.044 98.5252 103.57 89.6832 103.57 79.5781C103.57 74.5255 103.57 69.4729 104.833 64.4203C104.833 60.6309 106.096 56.8415 108.622 54.3152C112.411 50.5258 117.463 45.4732 121.253 40.4206C122.516 40.4206 122.516 39.1575 123.779 39.1575C122.516 39.1575 122.516 39.1575 121.253 40.4206ZM8.84134 121.262C11.3674 116.209 12.6305 112.42 15.1566 108.63C16.4196 108.63 16.4196 108.63 17.6827 109.894C21.4718 112.42 25.261 114.946 30.3132 117.472C34.1023 119.999 39.1545 122.525 44.2067 121.262C45.4697 121.262 46.7328 121.262 46.7328 121.262C44.2067 121.262 41.6806 119.999 39.1545 119.999C34.1023 118.736 30.3132 117.472 26.524 114.946C25.261 113.683 22.7349 112.42 20.2088 111.157C18.9457 109.894 16.4196 108.63 15.1566 106.104C12.6305 111.157 8.84134 114.946 8.84134 121.262Z" fill="#010101"/>
<path d="M250.082 197.051H286.71C286.71 190.735 287.973 185.682 290.499 180.63C293.025 175.577 295.551 171.788 299.34 167.998H301.867C301.867 169.261 301.867 171.788 301.867 173.051C301.867 174.314 301.867 176.84 301.867 178.103C301.867 180.63 301.867 181.893 301.867 183.156C301.867 185.682 301.867 188.209 301.867 189.472C301.867 191.998 301.867 193.261 301.867 194.524C301.867 195.787 301.867 197.051 301.867 198.314H221.031V195.787L233.662 193.261V63.1575L221.031 60.6312V56.8418H262.712V59.368L250.082 61.8943V197.051Z" fill="#010101" stroke="#010101" stroke-width="0.25" stroke-miterlimit="10"/>
<path d="M363.757 107.367C359.968 107.367 356.178 108.63 353.652 111.157C351.126 113.683 349.863 117.472 349.863 122.525C349.863 123.788 349.863 125.051 349.863 125.051C349.863 126.314 349.863 126.314 349.863 127.578C349.863 128.841 349.863 128.841 349.863 130.104L333.444 133.893V132.63C333.444 131.367 333.444 131.367 333.444 130.104C333.444 128.841 333.444 127.578 333.444 126.314C333.444 123.788 334.707 121.262 335.97 117.472C337.233 114.946 339.759 112.42 342.285 109.894C344.811 107.367 348.6 106.104 352.389 104.841C356.178 103.578 359.968 102.315 365.02 102.315C375.124 102.315 382.702 104.841 387.755 111.157C392.807 116.209 396.596 123.788 396.596 133.893V195.787L409.226 198.314V200.84H378.913V188.208C377.65 190.735 375.124 193.261 372.598 195.787C370.072 198.314 368.809 199.577 365.02 200.84C362.494 202.103 358.705 203.366 354.915 203.366C344.811 203.366 337.233 200.84 332.181 195.787C327.128 190.735 324.602 184.419 324.602 176.84C324.602 173.051 325.865 169.261 328.391 165.472C330.918 161.682 333.444 157.893 338.496 155.367C343.548 152.84 348.6 150.314 354.915 147.788C361.231 146.525 370.072 145.262 378.913 145.262V132.63C378.913 122.525 377.65 114.946 373.861 111.157C371.335 108.63 367.546 107.367 363.757 107.367ZM378.913 150.314C367.546 150.314 358.705 152.84 352.389 157.893C347.337 162.946 343.548 170.524 343.548 179.366C343.548 185.682 344.811 190.735 348.6 193.261C351.126 197.05 354.915 198.314 358.705 198.314C362.494 198.314 365.02 197.05 367.546 195.787C370.072 194.524 372.598 191.998 373.861 189.472C376.387 186.945 377.65 184.419 378.913 180.63V150.314Z" fill="#010101" stroke="#010101" stroke-width="0.25" stroke-miterlimit="10"/>
<path d="M521.64 127.578V195.787L534.27 198.314V200.84H492.59V198.314L505.22 195.787V63.1575L492.59 60.6312V56.8418H575.951C575.951 58.1049 575.951 59.368 575.951 60.6312C575.951 61.8943 575.951 64.4206 575.951 65.6838C575.951 68.21 575.951 69.4732 575.951 71.9995C575.951 74.5258 575.951 75.7889 575.951 77.0521C575.951 78.3152 575.951 80.8415 575.951 82.1046C575.951 84.6309 575.951 85.8941 575.951 87.1572H573.425C569.636 83.3678 567.11 79.5783 564.584 74.5258C562.058 69.4732 560.794 64.4206 560.794 58.1049H521.64V119.999H540.586L549.427 101.052H551.953V142.735H549.427L540.586 123.788H521.64V127.578Z" fill="#010101" stroke="#010101" stroke-width="0.25" stroke-miterlimit="10"/>
<path d="M607.525 154.104C607.525 162.946 608.788 170.524 610.051 175.577C611.314 181.893 612.577 185.682 615.103 189.472C617.63 193.261 620.156 195.787 622.682 197.05C625.208 198.314 627.734 199.577 631.523 199.577C635.312 199.577 637.838 198.314 641.627 197.05C644.154 195.787 647.943 193.261 650.469 191.998C652.995 189.472 655.521 186.945 656.784 183.156C658.047 179.366 659.31 176.84 660.573 173.051H663.099C663.099 176.84 661.836 181.893 659.31 185.682C658.047 189.472 655.521 193.261 651.732 195.787C647.943 198.314 644.154 200.84 640.364 202.103C636.575 203.366 632.786 204.629 627.734 204.629C622.682 204.629 617.63 203.366 612.577 200.84C607.525 198.314 603.736 195.787 599.947 190.735C596.158 186.945 593.632 180.63 591.106 174.314C588.579 167.998 587.316 160.419 587.316 152.84C587.316 143.998 588.579 137.683 589.842 131.367C592.369 125.051 594.895 119.999 597.421 116.209C601.21 112.42 604.999 108.63 608.788 106.104C613.84 103.578 617.63 102.315 622.682 102.315C627.734 102.315 632.786 103.578 636.575 106.104C641.627 108.63 645.417 111.157 647.943 116.209C651.732 119.999 654.258 125.051 655.521 131.367C658.047 137.683 658.047 145.262 658.047 152.84H607.525V154.104ZM625.208 107.367C622.682 107.367 621.419 108.63 618.893 109.894C616.366 111.157 615.103 113.683 612.577 116.209C611.314 119.999 608.788 123.788 608.788 128.841C607.525 133.893 607.525 141.472 606.262 150.314H644.154C644.154 141.472 642.89 135.156 641.627 128.841C640.364 122.525 639.101 118.736 637.838 116.209C636.575 112.42 634.049 111.157 631.523 109.894C630.26 107.367 627.734 107.367 625.208 107.367Z" fill="#010101" stroke="#010101" stroke-width="0.25" stroke-miterlimit="10"/>
<path d="M717.412 195.787L730.043 198.314V200.84H689.625V198.314L702.256 195.787V112.42L689.625 109.894V107.367H718.675V132.63C719.938 127.578 722.465 122.525 724.991 118.736C727.517 114.946 730.043 112.42 732.569 108.63C735.095 106.104 738.884 104.841 743.936 104.841C745.199 104.841 746.462 104.841 747.726 104.841C748.989 104.841 750.252 104.841 751.515 106.104C752.778 106.104 754.041 107.367 755.304 107.367L748.989 122.525C747.725 122.525 747.725 121.262 746.462 121.262C745.199 121.262 745.199 119.999 743.936 119.999C742.673 119.999 741.41 119.999 740.147 119.999C736.358 119.999 733.832 121.262 731.306 122.525C728.78 125.051 726.254 126.315 724.991 128.841C722.465 131.367 721.201 135.157 719.938 137.683V195.787H717.412Z" fill="#010101" stroke="#010101" stroke-width="0.25" stroke-miterlimit="10"/>
<path d="M800.771 195.787L813.402 198.314V200.84H772.984V198.314L785.615 195.787V112.42L772.984 109.894V107.367H802.034V132.63C803.297 127.578 805.824 122.525 808.35 118.736C810.876 114.946 813.402 112.42 815.928 108.63C818.454 106.104 822.243 104.841 827.295 104.841C828.558 104.841 829.822 104.841 831.085 104.841C832.348 104.841 833.611 104.841 834.874 106.104C836.137 106.104 837.4 107.367 838.663 107.367L832.348 122.525C831.085 122.525 831.085 121.262 829.821 121.262C828.558 121.262 828.558 119.999 827.295 119.999C826.032 119.999 824.769 119.999 823.506 119.999C819.717 119.999 817.191 121.262 814.665 122.525C812.139 125.051 809.613 126.315 808.35 128.841C805.824 131.367 804.561 135.157 803.297 137.683V195.787H800.771Z" fill="#010101" stroke="#010101" stroke-width="0.25" stroke-miterlimit="10"/>
<path d="M933.394 112.42V197.051L946.024 199.577V202.103H916.974V189.472C915.711 191.998 913.185 194.524 910.659 197.051C908.133 199.577 906.87 200.84 903.08 202.103C900.554 203.366 896.765 204.63 892.976 204.63C889.187 204.63 885.398 203.366 881.609 202.103C877.819 200.84 875.293 198.314 872.767 195.788C870.241 193.261 867.715 189.472 866.452 185.682C865.189 181.893 863.926 178.103 863.926 173.051V112.42L851.295 109.894V107.367H891.713V109.894L880.345 112.42V174.314C880.345 184.419 881.609 190.735 885.398 194.524C887.924 198.314 891.713 200.84 896.765 200.84C900.554 200.84 903.08 199.577 905.606 198.314C908.133 195.788 910.659 194.524 911.922 191.998C914.448 189.472 915.711 186.946 916.974 183.156V112.42L905.606 109.894V107.367H946.024V109.894L933.394 112.42Z" fill="#010101" stroke="#010101" stroke-width="0.25" stroke-miterlimit="10"/>
<path d="M1012.96 107.367C1010.44 107.367 1007.91 108.63 1005.39 109.894C1002.86 111.157 1000.33 113.683 997.808 117.472C995.282 121.262 994.019 126.314 992.756 131.367C991.493 137.683 990.23 143.998 990.23 152.84C990.23 161.682 991.493 169.261 992.756 174.314C994.019 180.63 995.282 184.419 997.808 188.208C1000.33 191.998 1002.86 194.524 1005.39 195.787C1007.91 197.05 1011.7 198.314 1014.23 198.314C1018.02 198.314 1020.54 197.05 1024.33 195.787C1026.86 194.524 1030.65 191.998 1033.17 190.735C1035.7 189.472 1038.23 185.682 1039.49 181.893C1040.75 178.103 1042.01 175.577 1043.28 171.788H1045.8C1045.8 175.577 1044.54 180.63 1042.01 184.419C1040.75 188.208 1038.23 191.998 1034.44 194.524C1030.65 197.05 1028.12 199.577 1024.33 200.84C1020.54 202.103 1016.75 203.366 1011.7 203.366C1006.65 203.366 1001.6 202.103 996.545 199.577C991.493 197.05 987.703 194.524 983.914 189.472C980.125 185.682 977.599 179.366 975.073 173.051C972.547 166.735 972.547 161.682 972.547 154.104C972.547 146.525 973.81 138.946 976.336 132.63C978.862 126.314 981.388 121.262 985.177 116.209C988.966 112.42 992.756 108.63 997.808 106.104C1002.86 103.578 1006.65 102.315 1011.7 102.315C1015.49 102.315 1018.02 102.315 1020.54 103.578C1023.07 104.841 1025.59 106.104 1026.86 107.367C1029.38 108.63 1030.65 111.157 1031.91 112.42C1031.91 109.894 1033.17 108.63 1035.7 106.104C1036.96 104.841 1039.49 103.578 1040.75 102.315H1043.28C1043.28 103.578 1043.28 106.104 1043.28 107.367C1043.28 108.63 1043.28 111.157 1043.28 112.42C1043.28 114.946 1043.28 116.209 1043.28 117.472C1043.28 119.999 1043.28 121.262 1043.28 123.788C1043.28 126.314 1043.28 127.578 1043.28 128.841C1043.28 131.367 1043.28 132.63 1043.28 133.893H1040.75C1038.23 123.788 1034.44 116.209 1029.38 111.157C1024.33 106.104 1018.02 107.367 1012.96 107.367Z" fill="#010101" stroke="#010101" stroke-width="0.25" stroke-miterlimit="10"/>
<path d="M1111.48 107.367C1108.96 107.367 1106.43 108.63 1103.9 109.893C1101.38 111.157 1098.85 113.683 1096.33 117.472C1093.8 121.262 1092.54 126.314 1091.27 131.367C1090.01 137.683 1088.75 143.998 1088.75 152.84C1088.75 161.682 1090.01 169.261 1091.27 174.314C1092.54 180.63 1093.8 184.419 1096.33 188.208C1098.85 191.998 1101.38 194.524 1103.9 195.787C1106.43 197.05 1110.22 198.314 1112.75 198.314C1116.53 198.314 1119.06 197.05 1122.85 195.787C1125.38 194.524 1129.17 191.998 1131.69 190.735C1134.22 189.472 1136.74 185.682 1138.01 181.893C1139.27 178.103 1140.53 175.577 1141.8 171.788H1144.32C1144.32 175.577 1143.06 180.63 1140.53 184.419C1139.27 188.208 1136.74 191.998 1132.95 194.524C1129.17 197.05 1126.64 199.577 1122.85 200.84C1119.06 202.103 1115.27 203.366 1110.22 203.366C1105.17 203.366 1100.11 202.103 1095.06 199.577C1090.01 197.05 1086.22 194.524 1082.43 189.472C1078.64 185.682 1076.12 179.366 1073.59 173.051C1071.06 166.735 1069.8 159.156 1069.8 151.577C1069.8 143.998 1071.06 136.42 1073.59 130.104C1076.12 123.788 1078.64 118.735 1082.43 113.683C1086.22 109.893 1090.01 106.104 1095.06 103.578C1100.11 101.051 1103.9 99.7881 1108.96 99.7881C1112.75 99.7881 1115.27 99.7881 1117.8 101.051C1120.32 102.315 1122.85 103.578 1124.11 104.841C1126.64 106.104 1127.9 108.63 1129.17 109.893C1129.17 107.367 1130.43 106.104 1132.95 103.578C1134.22 102.315 1136.74 101.051 1138.01 99.7881H1140.53C1140.53 101.051 1140.53 103.578 1140.53 104.841C1140.53 106.104 1140.53 108.63 1140.53 109.893C1140.53 112.42 1140.53 113.683 1140.53 114.946C1140.53 117.472 1140.53 118.735 1140.53 121.262C1140.53 123.788 1140.53 125.051 1140.53 126.314C1140.53 128.841 1140.53 130.104 1140.53 131.367H1138.01C1135.48 121.262 1131.69 113.683 1126.64 108.63C1121.59 103.578 1116.53 107.367 1111.48 107.367Z" fill="#010101" stroke="#010101" stroke-width="0.25" stroke-miterlimit="10"/>
<path d="M1179.69 195.787V112.42L1167.06 109.894V107.367H1196.11V197.05L1208.74 199.577V202.103H1168.32V199.577L1179.69 195.787ZM1197.37 83.3677C1197.37 85.894 1196.11 88.4203 1193.58 90.9466C1191.05 93.4729 1189.79 93.4729 1187.27 93.4729C1184.74 93.4729 1182.21 92.2097 1179.69 89.6834C1177.16 87.1572 1175.9 84.6309 1175.9 82.1046C1175.9 79.5783 1177.16 77.052 1179.69 74.5257C1182.21 71.9994 1184.74 70.7363 1187.27 70.7363C1189.79 70.7363 1192.32 71.9994 1194.84 74.5257C1197.37 77.052 1197.37 80.8414 1197.37 83.3677Z" fill="#010101" stroke="#010101" stroke-width="0.25" stroke-miterlimit="10"/>
</g>
</g>
<defs>
<clipPath id="clip0_1839_3098">
<rect width="1210" height="237" fill="white"/>
</clipPath>
</defs>
</svg>
