<svg width="1210" height="237" viewBox="0 0 1210 237" fill="none" xmlns="http://www.w3.org/2000/svg">
<g clip-path="url(#clip0_469_284)">
<path d="M92.2025 184.419C92.2025 186.945 93.4656 188.208 94.7286 190.735C95.9917 193.261 97.2547 194.524 99.7808 197.05C102.307 200.84 102.307 204.629 98.5178 208.419C97.2547 209.682 95.9917 210.945 94.7286 210.945C90.9395 212.208 88.4134 213.471 85.8873 214.734C83.3612 215.998 82.0981 217.261 80.8351 219.787C80.8351 221.05 79.572 222.313 77.0459 223.576C74.5198 224.84 73.2568 226.103 71.9937 228.629C70.7307 231.155 69.4676 233.682 68.2046 236.208C65.6785 236.208 63.1524 236.208 60.6263 236.208V234.945C63.1524 231.155 65.6785 226.103 69.4676 222.313C70.7307 221.05 70.7307 221.05 71.9937 219.787C73.2568 217.261 74.5198 215.998 75.7829 214.734C77.0459 213.471 78.309 213.471 79.572 212.208C83.3612 210.945 87.1503 208.419 89.6764 204.629C92.2025 202.103 92.2025 198.314 90.9395 194.524C89.6764 193.261 89.6764 191.998 88.4134 190.735C87.1503 188.208 84.6242 186.945 83.3612 184.419C77.0459 176.84 73.2568 169.261 73.2568 160.419C73.2568 160.419 73.2568 160.419 73.2568 159.156C56.8372 151.577 44.2067 138.946 35.3653 123.788C34.1023 123.788 34.1023 123.788 32.8392 123.788C27.7871 121.262 23.9979 118.736 20.2088 113.683L18.9457 112.42C17.6827 112.42 17.6827 113.683 16.4196 116.209C16.4196 117.472 16.4196 119.999 15.1566 121.262C13.8935 123.788 12.6305 126.314 13.8935 128.841C13.8935 128.841 13.8935 128.841 13.8935 130.104C16.4196 130.104 17.6827 130.104 18.9457 132.63C18.9457 136.42 16.4196 138.946 12.6305 140.209C12.6305 142.735 12.6305 145.262 11.3674 146.525C8.84134 145.262 6.31524 142.735 6.31524 140.209C5.05219 136.42 3.78914 133.893 1.26305 131.367C0 130.104 0 127.578 0 126.314C2.5261 118.736 3.78914 111.157 6.31524 103.578C7.57829 99.7884 11.3674 97.2621 15.1566 98.5252C17.6827 98.5252 20.2088 99.7884 22.7349 101.052C26.524 102.315 30.3132 102.315 35.3653 102.315C35.3653 101.052 35.3653 99.7884 36.6284 98.5252C36.6284 95.9989 37.8914 93.4727 41.6806 92.2095C42.9436 90.9464 44.2067 89.6832 45.4697 88.4201C46.7328 87.1569 47.9958 84.6306 47.9958 82.1044C47.9958 78.3149 46.7328 75.7886 42.9436 75.7886C40.4175 75.7886 39.1545 74.5255 37.8914 74.5255C36.6284 75.7886 36.6284 75.7886 36.6284 75.7886C32.8393 77.0518 30.3132 79.5781 27.7871 80.8412C26.524 82.1044 25.261 83.3675 23.9979 83.3675C21.4718 82.1044 20.2088 79.5781 20.2088 77.0518C20.2088 73.2623 21.4718 71.9992 23.9979 69.4729C23.9979 69.4729 25.261 69.4729 25.261 68.2098C27.7871 65.6835 30.3132 64.4203 31.5762 60.6309C35.3653 56.8415 37.8914 54.3152 41.6806 51.7889C45.4697 50.5258 46.7328 47.9995 45.4697 44.21C45.4697 42.9469 45.4697 40.4206 46.7328 39.1575C49.2589 40.4206 50.5219 44.21 51.785 45.4732C51.785 44.21 53.048 44.21 53.048 42.9469C54.3111 44.21 55.5741 45.4732 56.8372 47.9995C58.1002 47.9995 59.3633 46.7363 60.6263 46.7363C61.8894 46.7363 61.8894 47.9995 63.1524 47.9995C64.4155 47.9995 65.6785 49.2626 66.9416 49.2626C66.9416 49.2626 68.2046 50.5258 69.4676 51.7889C70.7307 51.7889 71.9937 53.052 74.5198 53.052C73.2568 53.052 71.9937 54.3152 71.9937 55.5783C73.2568 55.5783 73.2568 55.5783 73.2568 56.8415L74.5198 58.1046C73.2568 58.1046 73.2568 58.1046 73.2568 58.1046C77.0459 60.6309 79.572 63.1572 80.8351 66.9466C79.572 66.9466 78.309 65.6835 78.309 65.6835C77.0459 64.4203 77.0459 64.4203 75.7829 64.4203C78.309 68.2098 82.0981 70.7361 84.6242 74.5255C83.3612 74.5255 82.0981 73.2623 79.572 73.2623C80.8351 77.0518 83.3612 80.8412 85.8873 84.6306C83.3612 83.3675 82.0981 82.1044 79.572 80.8412C80.8351 82.1044 80.8351 83.3675 82.0981 84.6306C83.3612 85.8938 84.6242 87.1569 85.8873 89.6832C87.1503 92.2095 87.1503 94.7358 85.8873 97.2621C85.8873 93.4726 84.6242 90.9464 80.8351 89.6832C82.0981 93.4726 83.3612 97.2621 84.6242 99.7884C85.8873 102.315 85.8873 104.841 85.8873 107.367C85.8873 108.63 85.8873 111.157 83.3612 112.42C83.3612 108.63 82.0981 106.104 78.309 103.578C79.572 108.63 79.572 112.42 83.3612 116.209C87.1503 113.683 89.6764 111.157 90.9395 107.367C93.4656 102.315 94.7286 95.9989 94.7286 90.9464C94.7286 84.6306 94.7286 77.0518 93.4656 70.7361C93.4656 64.4203 93.4656 59.3678 98.5178 54.3152C101.044 50.5258 104.833 47.9995 108.622 44.21C114.937 39.1575 121.253 32.8417 126.305 27.7892C131.357 22.7366 135.146 15.1577 140.198 10.1052C141.461 7.57886 143.987 5.05258 145.251 3.78943C145.251 3.78943 145.251 3.78943 145.251 5.05258V6.31572C143.987 12.6314 141.461 18.9472 138.935 25.2629L140.198 23.9997C145.251 21.4734 147.777 17.684 151.566 12.6314C154.092 8.84201 157.881 5.05258 160.407 1.26314C160.407 0 161.67 0 162.933 0C161.67 8.84201 159.144 16.4209 155.355 25.2629C159.144 22.7366 162.933 18.9472 166.722 16.4209C166.722 23.9997 164.196 29.0523 160.407 34.1049C159.144 35.368 156.618 37.8943 155.355 39.1575C154.092 40.4206 154.092 41.6838 152.829 42.9469C159.144 40.4206 164.196 37.8943 170.511 35.368C167.985 44.21 161.67 50.5258 154.092 55.5783C157.881 55.5783 161.67 53.052 166.722 53.052C166.722 54.3152 166.722 54.3152 166.722 54.3152C164.196 58.1046 160.407 61.8941 155.355 63.1572C152.829 64.4203 151.566 64.4203 149.04 65.6835C147.777 66.9466 145.251 66.9466 143.987 68.2098C149.04 69.4729 154.092 68.2098 159.144 68.2098C157.881 70.7361 156.618 73.2623 154.092 74.5255C151.566 75.7886 147.777 77.0518 145.251 78.3149C142.724 78.3149 141.461 79.5781 138.935 79.5781C142.724 80.8412 146.514 80.8412 150.303 83.3675C149.04 85.8938 146.514 88.4201 143.987 88.4201C141.461 88.4201 138.935 88.4201 137.672 88.4201C136.409 88.4201 135.146 88.4201 133.883 88.4201C136.409 90.9464 138.935 90.9464 141.461 93.4727C140.198 97.2621 136.409 97.2621 133.883 97.2621C133.883 98.5252 133.883 98.5252 133.883 98.5252C133.883 101.052 132.62 102.315 131.357 103.578C130.094 104.841 128.831 106.104 128.831 107.367C125.042 109.894 122.516 112.42 119.99 113.683C117.463 114.946 116.2 116.209 113.674 117.472C108.622 121.262 103.57 123.788 95.9917 125.051C93.4656 125.051 89.6764 126.314 87.1503 126.314H88.4134C92.2025 126.314 95.9917 127.578 98.5178 128.841C101.044 130.104 102.307 131.367 104.833 132.63C109.885 136.42 113.674 140.209 116.2 146.525C117.463 149.051 117.463 150.314 118.727 152.84C119.99 155.367 121.253 156.63 122.516 157.893C126.305 159.156 128.831 161.682 132.62 165.472C136.409 170.524 138.935 175.577 141.461 180.63C142.724 183.156 142.724 186.945 143.987 189.472C142.724 188.208 140.198 185.682 138.935 184.419C138.935 189.472 140.198 193.261 140.198 198.314C141.461 203.366 142.724 207.156 143.987 212.208C140.198 209.682 138.935 207.156 136.409 203.366C135.146 208.419 132.62 213.471 131.357 218.524C130.094 214.734 130.094 212.208 128.831 209.682C127.568 210.945 126.305 210.945 125.042 212.208C126.305 204.629 126.305 195.787 123.779 188.208C123.779 189.472 123.779 189.472 122.516 190.735C122.516 183.156 123.779 176.84 121.253 169.261C119.99 169.261 119.99 169.261 118.727 169.261C118.727 167.998 118.727 166.735 118.727 166.735C118.727 166.735 117.463 166.735 117.463 167.998C116.2 170.524 114.937 173.051 112.411 175.577C111.148 178.103 109.885 180.63 109.885 183.156C109.885 185.682 109.885 188.208 111.148 190.735C112.411 194.524 113.674 198.314 117.463 200.84C118.727 202.103 118.727 203.366 118.727 204.629C117.463 207.156 117.463 208.419 114.937 209.682C112.411 210.945 109.885 212.208 107.359 213.471C102.307 215.998 97.2547 218.524 94.7286 223.576C92.2025 226.103 88.4134 227.366 83.3612 227.366C83.3612 228.629 84.6242 228.629 84.6242 229.892C85.8873 232.418 84.6242 234.945 80.8351 234.945C79.572 234.945 78.309 234.945 77.0459 234.945C74.5198 234.945 73.2568 234.945 70.7307 234.945C73.2568 229.892 74.5198 227.366 78.309 223.576C79.572 222.313 80.8351 221.05 82.0981 218.524C83.3612 215.998 84.6242 214.734 87.1503 213.471C89.6764 212.208 92.2025 210.945 94.7286 209.682C97.2547 208.419 99.7808 205.892 101.044 203.366C102.307 200.84 102.307 198.314 101.044 195.787C98.5177 191.998 94.7286 188.208 92.2025 184.419ZM121.253 40.4206C117.463 42.9469 113.674 46.7363 109.885 50.5258C107.359 51.7889 106.096 54.3152 103.57 56.8415C102.307 59.3678 102.307 61.8941 102.307 64.4203C102.307 68.2098 102.307 73.2623 102.307 77.0518C102.307 87.1569 101.044 95.9989 97.2547 106.104C93.4656 112.42 89.6764 116.209 84.6242 119.999C87.1503 119.999 88.4134 118.736 90.9395 117.472C93.4656 114.946 95.9917 111.157 97.2547 107.367C101.044 98.5252 103.57 89.6832 103.57 79.5781C103.57 74.5255 103.57 69.4729 104.833 64.4203C104.833 60.6309 106.096 56.8415 108.622 54.3152C112.411 50.5258 117.463 45.4732 121.253 40.4206C122.516 40.4206 122.516 39.1575 123.779 39.1575C122.516 39.1575 122.516 39.1575 121.253 40.4206ZM8.84134 121.262C11.3674 116.209 12.6305 112.42 15.1566 108.63C16.4196 108.63 16.4196 108.63 17.6827 109.894C21.4718 112.42 25.261 114.946 30.3132 117.472C34.1023 119.999 39.1545 122.525 44.2067 121.262C45.4697 121.262 46.7328 121.262 46.7328 121.262C44.2067 121.262 41.6806 119.999 39.1545 119.999C34.1023 118.736 30.3132 117.472 26.524 114.946C25.261 113.683 22.7349 112.42 20.2088 111.157C18.9457 109.894 16.4196 108.63 15.1566 106.104C12.6305 111.157 8.84134 114.946 8.84134 121.262Z" fill="#ffffff"/>
<path d="M250.084 197.051H286.712C286.712 190.735 287.975 185.682 290.501 180.63C293.027 175.577 295.553 171.788 299.342 167.998H301.869C301.869 169.261 301.869 171.788 301.869 173.051C301.869 174.314 301.869 176.84 301.869 178.103C301.869 180.63 301.869 181.893 301.869 183.156C301.869 185.682 301.869 188.209 301.869 189.472C301.869 191.998 301.869 193.261 301.869 194.524C301.869 195.787 301.869 197.051 301.869 198.314H221.033V195.787L233.664 193.261V63.1573L221.033 60.631V56.8416H262.714V59.3678L250.084 61.8941V197.051Z" fill="#ffffff" stroke="#ffffff" stroke-width="0.25" stroke-miterlimit="10"/>
<path d="M363.758 107.367C359.969 107.367 356.179 108.63 353.653 111.157C351.127 113.683 349.864 117.472 349.864 122.525C349.864 123.788 349.864 125.051 349.864 125.051C349.864 126.314 349.864 126.314 349.864 127.578C349.864 128.841 349.864 128.841 349.864 130.104L333.445 133.893V132.63C333.445 131.367 333.445 131.367 333.445 130.104C333.445 128.841 333.445 127.578 333.445 126.314C333.445 123.788 334.708 121.262 335.971 117.472C337.234 114.946 339.76 112.42 342.286 109.894C344.812 107.367 348.601 106.104 352.39 104.841C356.179 103.578 359.969 102.315 365.021 102.315C375.125 102.315 382.703 104.841 387.756 111.157C392.808 116.209 396.597 123.788 396.597 133.893V195.787L409.227 198.314V200.84H378.914V188.208C377.651 190.735 375.125 193.261 372.599 195.787C370.073 198.314 368.81 199.577 365.021 200.84C362.495 202.103 358.706 203.366 354.916 203.366C344.812 203.366 337.234 200.84 332.182 195.787C327.129 190.735 324.603 184.419 324.603 176.84C324.603 173.051 325.866 169.261 328.392 165.472C330.919 161.682 333.445 157.893 338.497 155.367C343.549 152.84 348.601 150.314 354.916 147.788C361.232 146.525 370.073 145.262 378.914 145.262V132.63C378.914 122.525 377.651 114.946 373.862 111.157C371.336 108.63 367.547 107.367 363.758 107.367ZM378.914 150.314C367.547 150.314 358.706 152.84 352.39 157.893C347.338 162.946 343.549 170.524 343.549 179.366C343.549 185.682 344.812 190.735 348.601 193.261C351.127 197.05 354.916 198.314 358.706 198.314C362.495 198.314 365.021 197.05 367.547 195.787C370.073 194.524 372.599 191.998 373.862 189.472C376.388 186.945 377.651 184.419 378.914 180.63V150.314Z" fill="#ffffff" stroke="#ffffff" stroke-width="0.25" stroke-miterlimit="10"/>
<path d="M521.639 127.578V195.787L534.269 198.314V200.84H492.589V198.314L505.219 195.787V63.1573L492.589 60.631V56.8416H575.95C575.95 58.1047 575.95 59.3678 575.95 60.631C575.95 61.8941 575.95 64.4204 575.95 65.6836C575.95 68.2098 575.95 69.473 575.95 71.9993C575.95 74.5256 575.95 75.7887 575.95 77.0519C575.95 78.315 575.95 80.8413 575.95 82.1044C575.95 84.6307 575.95 85.8939 575.95 87.157H573.424C569.635 83.3676 567.109 79.5781 564.583 74.5256C562.057 69.473 560.793 64.4204 560.793 58.1047H521.639V119.999H540.585L549.426 101.052H551.952V142.735H549.426L540.585 123.788H521.639V127.578Z" fill="#ffffff" stroke="#ffffff" stroke-width="0.25" stroke-miterlimit="10"/>
<path d="M607.526 154.104C607.526 162.946 608.789 170.524 610.052 175.577C611.315 181.893 612.578 185.682 615.104 189.472C617.631 193.261 620.157 195.787 622.683 197.05C625.209 198.314 627.735 199.577 631.524 199.577C635.313 199.577 637.839 198.314 641.628 197.05C644.155 195.787 647.944 193.261 650.47 191.998C652.996 189.472 655.522 186.945 656.785 183.156C658.048 179.366 659.311 176.84 660.574 173.051H663.1C663.1 176.84 661.837 181.893 659.311 185.682C658.048 189.472 655.522 193.261 651.733 195.787C647.944 198.314 644.155 200.84 640.365 202.103C636.576 203.366 632.787 204.629 627.735 204.629C622.683 204.629 617.631 203.366 612.578 200.84C607.526 198.314 603.737 195.787 599.948 190.735C596.159 186.945 593.633 180.63 591.107 174.314C588.58 167.998 587.317 160.419 587.317 152.84C587.317 143.998 588.58 137.683 589.843 131.367C592.37 125.051 594.896 119.999 597.422 116.209C601.211 112.42 605 108.63 608.789 106.104C613.841 103.578 617.631 102.315 622.683 102.315C627.735 102.315 632.787 103.578 636.576 106.104C641.628 108.63 645.418 111.157 647.944 116.209C651.733 119.999 654.259 125.051 655.522 131.367C658.048 137.683 658.048 145.262 658.048 152.84H607.526V154.104ZM625.209 107.367C622.683 107.367 621.42 108.63 618.894 109.894C616.367 111.157 615.104 113.683 612.578 116.209C611.315 119.999 608.789 123.788 608.789 128.841C607.526 133.893 607.526 141.472 606.263 150.314H644.155C644.155 141.472 642.891 135.156 641.628 128.841C640.365 122.525 639.102 118.736 637.839 116.209C636.576 112.42 634.05 111.157 631.524 109.894C630.261 107.367 627.735 107.367 625.209 107.367Z" fill="#ffffff" stroke="#ffffff" stroke-width="0.25" stroke-miterlimit="10"/>
<path d="M717.411 195.787L730.042 198.314V200.84H689.624V198.314L702.255 195.787V112.42L689.624 109.894V107.367H718.674V132.63C719.937 127.578 722.464 122.525 724.99 118.736C727.516 114.946 730.042 112.42 732.568 108.63C735.094 106.104 738.883 104.841 743.935 104.841C745.198 104.841 746.461 104.841 747.725 104.841C748.988 104.841 750.251 104.841 751.514 106.104C752.777 106.104 754.04 107.367 755.303 107.367L748.988 122.525C747.724 122.525 747.724 121.262 746.461 121.262C745.198 121.262 745.198 119.999 743.935 119.999C742.672 119.999 741.409 119.999 740.146 119.999C736.357 119.999 733.831 121.262 731.305 122.525C728.779 125.051 726.253 126.315 724.99 128.841C722.464 131.367 721.2 135.157 719.937 137.683V195.787H717.411Z" fill="#ffffff" stroke="#ffffff" stroke-width="0.25" stroke-miterlimit="10"/>
<path d="M800.772 195.787L813.403 198.314V200.84H772.985V198.314L785.616 195.787V112.42L772.985 109.894V107.367H802.035V132.63C803.298 127.578 805.825 122.525 808.351 118.736C810.877 114.946 813.403 112.42 815.929 108.63C818.455 106.104 822.244 104.841 827.296 104.841C828.559 104.841 829.823 104.841 831.086 104.841C832.349 104.841 833.612 104.841 834.875 106.104C836.138 106.104 837.401 107.367 838.664 107.367L832.349 122.525C831.086 122.525 831.086 121.262 829.822 121.262C828.559 121.262 828.559 119.999 827.296 119.999C826.033 119.999 824.77 119.999 823.507 119.999C819.718 119.999 817.192 121.262 814.666 122.525C812.14 125.051 809.614 126.315 808.351 128.841C805.825 131.367 804.562 135.157 803.298 137.683V195.787H800.772Z" fill="#ffffff" stroke="#ffffff" stroke-width="0.25" stroke-miterlimit="10"/>
<path d="M933.393 112.42V197.051L946.023 199.577V202.103H916.973V189.472C915.71 191.998 913.184 194.524 910.658 197.051C908.132 199.577 906.869 200.84 903.079 202.103C900.553 203.366 896.764 204.63 892.975 204.63C889.186 204.63 885.397 203.366 881.608 202.103C877.818 200.84 875.292 198.314 872.766 195.788C870.24 193.261 867.714 189.472 866.451 185.682C865.188 181.893 863.925 178.103 863.925 173.051V112.42L851.294 109.894V107.367H891.712V109.894L880.344 112.42V174.314C880.344 184.419 881.608 190.735 885.397 194.524C887.923 198.314 891.712 200.84 896.764 200.84C900.553 200.84 903.079 199.577 905.605 198.314C908.132 195.788 910.658 194.524 911.921 191.998C914.447 189.472 915.71 186.946 916.973 183.156V112.42L905.605 109.894V107.367H946.023V109.894L933.393 112.42Z" fill="#ffffff" stroke="#ffffff" stroke-width="0.25" stroke-miterlimit="10"/>
<path d="M1012.96 107.367C1010.44 107.367 1007.91 108.63 1005.39 109.894C1002.86 111.157 1000.33 113.683 997.808 117.472C995.282 121.262 994.019 126.314 992.756 131.367C991.493 137.683 990.23 143.998 990.23 152.84C990.23 161.682 991.493 169.261 992.756 174.314C994.019 180.63 995.282 184.419 997.808 188.208C1000.33 191.998 1002.86 194.524 1005.39 195.787C1007.91 197.05 1011.7 198.314 1014.23 198.314C1018.02 198.314 1020.54 197.05 1024.33 195.787C1026.86 194.524 1030.65 191.998 1033.17 190.735C1035.7 189.472 1038.23 185.682 1039.49 181.893C1040.75 178.103 1042.01 175.577 1043.28 171.788H1045.8C1045.8 175.577 1044.54 180.63 1042.01 184.419C1040.75 188.208 1038.23 191.998 1034.44 194.524C1030.65 197.05 1028.12 199.577 1024.33 200.84C1020.54 202.103 1016.75 203.366 1011.7 203.366C1006.65 203.366 1001.6 202.103 996.545 199.577C991.493 197.05 987.703 194.524 983.914 189.472C980.125 185.682 977.599 179.366 975.073 173.051C972.547 166.735 972.547 161.682 972.547 154.104C972.547 146.525 973.81 138.946 976.336 132.63C978.862 126.314 981.388 121.262 985.177 116.209C988.966 112.42 992.756 108.63 997.808 106.104C1002.86 103.578 1006.65 102.315 1011.7 102.315C1015.49 102.315 1018.02 102.315 1020.54 103.578C1023.07 104.841 1025.59 106.104 1026.86 107.367C1029.38 108.63 1030.65 111.157 1031.91 112.42C1031.91 109.894 1033.17 108.63 1035.7 106.104C1036.96 104.841 1039.49 103.578 1040.75 102.315H1043.28C1043.28 103.578 1043.28 106.104 1043.28 107.367C1043.28 108.63 1043.28 111.157 1043.28 112.42C1043.28 114.946 1043.28 116.209 1043.28 117.472C1043.28 119.999 1043.28 121.262 1043.28 123.788C1043.28 126.314 1043.28 127.578 1043.28 128.841C1043.28 131.367 1043.28 132.63 1043.28 133.893H1040.75C1038.23 123.788 1034.44 116.209 1029.38 111.157C1024.33 106.104 1018.02 107.367 1012.96 107.367Z" fill="#ffffff" stroke="#ffffff" stroke-width="0.25" stroke-miterlimit="10"/>
<path d="M1111.48 107.367C1108.96 107.367 1106.43 108.63 1103.9 109.893C1101.38 111.157 1098.85 113.683 1096.33 117.472C1093.8 121.262 1092.54 126.314 1091.27 131.367C1090.01 137.683 1088.75 143.998 1088.75 152.84C1088.75 161.682 1090.01 169.261 1091.27 174.314C1092.54 180.63 1093.8 184.419 1096.33 188.208C1098.85 191.998 1101.38 194.524 1103.9 195.787C1106.43 197.05 1110.22 198.314 1112.75 198.314C1116.53 198.314 1119.06 197.05 1122.85 195.787C1125.38 194.524 1129.17 191.998 1131.69 190.735C1134.22 189.472 1136.74 185.682 1138.01 181.893C1139.27 178.103 1140.53 175.577 1141.8 171.788H1144.32C1144.32 175.577 1143.06 180.63 1140.53 184.419C1139.27 188.208 1136.74 191.998 1132.95 194.524C1129.17 197.05 1126.64 199.577 1122.85 200.84C1119.06 202.103 1115.27 203.366 1110.22 203.366C1105.17 203.366 1100.11 202.103 1095.06 199.577C1090.01 197.05 1086.22 194.524 1082.43 189.472C1078.64 185.682 1076.12 179.366 1073.59 173.051C1071.06 166.735 1069.8 159.156 1069.8 151.577C1069.8 143.998 1071.06 136.42 1073.59 130.104C1076.12 123.788 1078.64 118.735 1082.43 113.683C1086.22 109.893 1090.01 106.104 1095.06 103.578C1100.11 101.051 1103.9 99.7883 1108.96 99.7883C1112.75 99.7883 1115.27 99.7883 1117.8 101.051C1120.32 102.315 1122.85 103.578 1124.11 104.841C1126.64 106.104 1127.9 108.63 1129.17 109.893C1129.17 107.367 1130.43 106.104 1132.95 103.578C1134.22 102.315 1136.74 101.051 1138.01 99.7883H1140.53C1140.53 101.051 1140.53 103.578 1140.53 104.841C1140.53 106.104 1140.53 108.63 1140.53 109.893C1140.53 112.42 1140.53 113.683 1140.53 114.946C1140.53 117.472 1140.53 118.735 1140.53 121.262C1140.53 123.788 1140.53 125.051 1140.53 126.314C1140.53 128.841 1140.53 130.104 1140.53 131.367H1138.01C1135.48 121.262 1131.69 113.683 1126.64 108.63C1121.59 103.578 1116.53 107.367 1111.48 107.367Z" fill="#ffffff" stroke="#ffffff" stroke-width="0.25" stroke-miterlimit="10"/>
<path d="M1179.69 195.787V112.42L1167.06 109.894V107.367H1196.11V197.05L1208.74 199.577V202.103H1168.32V199.577L1179.69 195.787ZM1197.37 83.3675C1197.37 85.8938 1196.11 88.4201 1193.58 90.9464C1191.05 93.4727 1189.79 93.4727 1187.27 93.4727C1184.74 93.4727 1182.21 92.2095 1179.69 89.6832C1177.16 87.157 1175.9 84.6307 1175.9 82.1044C1175.9 79.5781 1177.16 77.0518 1179.69 74.5255C1182.21 71.9992 1184.74 70.7361 1187.27 70.7361C1189.79 70.7361 1192.32 71.9992 1194.84 74.5255C1197.37 77.0518 1197.37 80.8412 1197.37 83.3675Z" fill="#ffffff" stroke="#ffffff" stroke-width="0.25" stroke-miterlimit="10"/>
</g>
<defs>
<clipPath id="clip0_469_284">
<rect width="1210" height="236.208" fill="white"/>
</clipPath>
</defs>
</svg>
