<svg width="171" height="237" viewBox="0 0 171 237" fill="none" xmlns="http://www.w3.org/2000/svg">
<path d="M92.2025 184.419C92.2025 186.945 93.4656 188.208 94.7286 190.735C95.9917 193.261 97.2547 194.524 99.7808 197.05C102.307 200.84 102.307 204.629 98.5178 208.419C97.2547 209.682 95.9917 210.945 94.7286 210.945C90.9395 212.208 88.4134 213.471 85.8873 214.734C83.3612 215.998 82.0981 217.261 80.8351 219.787C80.8351 221.05 79.572 222.313 77.0459 223.576C74.5198 224.84 73.2568 226.103 71.9937 228.629C70.7307 231.155 69.4676 233.682 68.2046 236.208C65.6785 236.208 63.1524 236.208 60.6263 236.208V234.945C63.1524 231.155 65.6785 226.103 69.4676 222.313C70.7307 221.05 70.7307 221.05 71.9937 219.787C73.2568 217.261 74.5198 215.998 75.7829 214.734C77.0459 213.471 78.309 213.471 79.572 212.208C83.3612 210.945 87.1503 208.419 89.6764 204.629C92.2025 202.103 92.2025 198.314 90.9395 194.524C89.6764 193.261 89.6764 191.998 88.4134 190.735C87.1503 188.208 84.6242 186.945 83.3612 184.419C77.0459 176.84 73.2568 169.261 73.2568 160.419C73.2568 160.419 73.2568 160.419 73.2568 159.156C56.8372 151.577 44.2067 138.946 35.3653 123.788C34.1023 123.788 34.1023 123.788 32.8392 123.788C27.7871 121.262 23.9979 118.736 20.2088 113.683L18.9457 112.42C17.6827 112.42 17.6827 113.683 16.4196 116.209C16.4196 117.472 16.4196 119.999 15.1566 121.262C13.8935 123.788 12.6305 126.314 13.8935 128.841C13.8935 128.841 13.8935 128.841 13.8935 130.104C16.4196 130.104 17.6827 130.104 18.9457 132.63C18.9457 136.42 16.4196 138.946 12.6305 140.209C12.6305 142.735 12.6305 145.262 11.3674 146.525C8.84134 145.262 6.31524 142.735 6.31524 140.209C5.05219 136.42 3.78914 133.893 1.26305 131.367C0 130.104 0 127.578 0 126.314C2.5261 118.736 3.78914 111.157 6.31524 103.578C7.57829 99.7884 11.3674 97.2621 15.1566 98.5252C17.6827 98.5252 20.2088 99.7884 22.7349 101.052C26.524 102.315 30.3132 102.315 35.3653 102.315C35.3653 101.052 35.3653 99.7884 36.6284 98.5252C36.6284 95.9989 37.8914 93.4727 41.6806 92.2095C42.9436 90.9464 44.2067 89.6832 45.4697 88.4201C46.7328 87.1569 47.9958 84.6306 47.9958 82.1044C47.9958 78.3149 46.7328 75.7886 42.9436 75.7886C40.4175 75.7886 39.1545 74.5255 37.8914 74.5255C36.6284 75.7886 36.6284 75.7886 36.6284 75.7886C32.8393 77.0518 30.3132 79.5781 27.7871 80.8412C26.524 82.1044 25.261 83.3675 23.9979 83.3675C21.4718 82.1044 20.2088 79.5781 20.2088 77.0518C20.2088 73.2623 21.4718 71.9992 23.9979 69.4729C23.9979 69.4729 25.261 69.4729 25.261 68.2098C27.7871 65.6835 30.3132 64.4203 31.5762 60.6309C35.3653 56.8415 37.8914 54.3152 41.6806 51.7889C45.4697 50.5258 46.7328 47.9995 45.4697 44.21C45.4697 42.9469 45.4697 40.4206 46.7328 39.1575C49.2589 40.4206 50.5219 44.21 51.785 45.4732C51.785 44.21 53.048 44.21 53.048 42.9469C54.3111 44.21 55.5741 45.4732 56.8372 47.9995C58.1002 47.9995 59.3633 46.7363 60.6263 46.7363C61.8894 46.7363 61.8894 47.9995 63.1524 47.9995C64.4155 47.9995 65.6785 49.2626 66.9416 49.2626C66.9416 49.2626 68.2046 50.5258 69.4676 51.7889C70.7307 51.7889 71.9937 53.052 74.5198 53.052C73.2568 53.052 71.9937 54.3152 71.9937 55.5783C73.2568 55.5783 73.2568 55.5783 73.2568 56.8415L74.5198 58.1046C73.2568 58.1046 73.2568 58.1046 73.2568 58.1046C77.0459 60.6309 79.572 63.1572 80.8351 66.9466C79.572 66.9466 78.309 65.6835 78.309 65.6835C77.0459 64.4203 77.0459 64.4203 75.7829 64.4203C78.309 68.2098 82.0981 70.7361 84.6242 74.5255C83.3612 74.5255 82.0981 73.2623 79.572 73.2623C80.8351 77.0518 83.3612 80.8412 85.8873 84.6306C83.3612 83.3675 82.0981 82.1044 79.572 80.8412C80.8351 82.1044 80.8351 83.3675 82.0981 84.6306C83.3612 85.8938 84.6242 87.1569 85.8873 89.6832C87.1503 92.2095 87.1503 94.7358 85.8873 97.2621C85.8873 93.4726 84.6242 90.9464 80.8351 89.6832C82.0981 93.4726 83.3612 97.2621 84.6242 99.7884C85.8873 102.315 85.8873 104.841 85.8873 107.367C85.8873 108.63 85.8873 111.157 83.3612 112.42C83.3612 108.63 82.0981 106.104 78.309 103.578C79.572 108.63 79.572 112.42 83.3612 116.209C87.1503 113.683 89.6764 111.157 90.9395 107.367C93.4656 102.315 94.7286 95.9989 94.7286 90.9464C94.7286 84.6306 94.7286 77.0518 93.4656 70.7361C93.4656 64.4203 93.4656 59.3678 98.5178 54.3152C101.044 50.5258 104.833 47.9995 108.622 44.21C114.937 39.1575 121.253 32.8417 126.305 27.7892C131.357 22.7366 135.146 15.1577 140.198 10.1052C141.461 7.57886 143.987 5.05258 145.251 3.78943C145.251 3.78943 145.251 3.78943 145.251 5.05258V6.31572C143.987 12.6314 141.461 18.9472 138.935 25.2629L140.198 23.9997C145.251 21.4734 147.777 17.684 151.566 12.6314C154.092 8.84201 157.881 5.05258 160.407 1.26314C160.407 0 161.67 0 162.933 0C161.67 8.84201 159.144 16.4209 155.355 25.2629C159.144 22.7366 162.933 18.9472 166.722 16.4209C166.722 23.9997 164.196 29.0523 160.407 34.1049C159.144 35.368 156.618 37.8943 155.355 39.1575C154.092 40.4206 154.092 41.6838 152.829 42.9469C159.144 40.4206 164.196 37.8943 170.511 35.368C167.985 44.21 161.67 50.5258 154.092 55.5783C157.881 55.5783 161.67 53.052 166.722 53.052C166.722 54.3152 166.722 54.3152 166.722 54.3152C164.196 58.1046 160.407 61.8941 155.355 63.1572C152.829 64.4203 151.566 64.4203 149.04 65.6835C147.777 66.9466 145.251 66.9466 143.987 68.2098C149.04 69.4729 154.092 68.2098 159.144 68.2098C157.881 70.7361 156.618 73.2623 154.092 74.5255C151.566 75.7886 147.777 77.0518 145.251 78.3149C142.724 78.3149 141.461 79.5781 138.935 79.5781C142.724 80.8412 146.514 80.8412 150.303 83.3675C149.04 85.8938 146.514 88.4201 143.987 88.4201C141.461 88.4201 138.935 88.4201 137.672 88.4201C136.409 88.4201 135.146 88.4201 133.883 88.4201C136.409 90.9464 138.935 90.9464 141.461 93.4727C140.198 97.2621 136.409 97.2621 133.883 97.2621C133.883 98.5252 133.883 98.5252 133.883 98.5252C133.883 101.052 132.62 102.315 131.357 103.578C130.094 104.841 128.831 106.104 128.831 107.367C125.042 109.894 122.516 112.42 119.99 113.683C117.463 114.946 116.2 116.209 113.674 117.472C108.622 121.262 103.57 123.788 95.9917 125.051C93.4656 125.051 89.6764 126.314 87.1503 126.314H88.4134C92.2025 126.314 95.9917 127.578 98.5178 128.841C101.044 130.104 102.307 131.367 104.833 132.63C109.885 136.42 113.674 140.209 116.2 146.525C117.463 149.051 117.463 150.314 118.727 152.84C119.99 155.367 121.253 156.63 122.516 157.893C126.305 159.156 128.831 161.682 132.62 165.472C136.409 170.524 138.935 175.577 141.461 180.63C142.724 183.156 142.724 186.945 143.987 189.472C142.724 188.208 140.198 185.682 138.935 184.419C138.935 189.472 140.198 193.261 140.198 198.314C141.461 203.366 142.724 207.156 143.987 212.208C140.198 209.682 138.935 207.156 136.409 203.366C135.146 208.419 132.62 213.471 131.357 218.524C130.094 214.734 130.094 212.208 128.831 209.682C127.568 210.945 126.305 210.945 125.042 212.208C126.305 204.629 126.305 195.787 123.779 188.208C123.779 189.472 123.779 189.472 122.516 190.735C122.516 183.156 123.779 176.84 121.253 169.261C119.99 169.261 119.99 169.261 118.727 169.261C118.727 167.998 118.727 166.735 118.727 166.735C118.727 166.735 117.463 166.735 117.463 167.998C116.2 170.524 114.937 173.051 112.411 175.577C111.148 178.103 109.885 180.63 109.885 183.156C109.885 185.682 109.885 188.208 111.148 190.735C112.411 194.524 113.674 198.314 117.463 200.84C118.727 202.103 118.727 203.366 118.727 204.629C117.463 207.156 117.463 208.419 114.937 209.682C112.411 210.945 109.885 212.208 107.359 213.471C102.307 215.998 97.2547 218.524 94.7286 223.576C92.2025 226.103 88.4134 227.366 83.3612 227.366C83.3612 228.629 84.6242 228.629 84.6242 229.892C85.8873 232.418 84.6242 234.945 80.8351 234.945C79.572 234.945 78.309 234.945 77.0459 234.945C74.5198 234.945 73.2568 234.945 70.7307 234.945C73.2568 229.892 74.5198 227.366 78.309 223.576C79.572 222.313 80.8351 221.05 82.0981 218.524C83.3612 215.998 84.6242 214.734 87.1503 213.471C89.6764 212.208 92.2025 210.945 94.7286 209.682C97.2547 208.419 99.7808 205.892 101.044 203.366C102.307 200.84 102.307 198.314 101.044 195.787C98.5177 191.998 94.7286 188.208 92.2025 184.419ZM121.253 40.4206C117.463 42.9469 113.674 46.7363 109.885 50.5258C107.359 51.7889 106.096 54.3152 103.57 56.8415C102.307 59.3678 102.307 61.8941 102.307 64.4203C102.307 68.2098 102.307 73.2623 102.307 77.0518C102.307 87.1569 101.044 95.9989 97.2547 106.104C93.4656 112.42 89.6764 116.209 84.6242 119.999C87.1503 119.999 88.4134 118.736 90.9395 117.472C93.4656 114.946 95.9917 111.157 97.2547 107.367C101.044 98.5252 103.57 89.6832 103.57 79.5781C103.57 74.5255 103.57 69.4729 104.833 64.4203C104.833 60.6309 106.096 56.8415 108.622 54.3152C112.411 50.5258 117.463 45.4732 121.253 40.4206C122.516 40.4206 122.516 39.1575 123.779 39.1575C122.516 39.1575 122.516 39.1575 121.253 40.4206ZM8.84134 121.262C11.3674 116.209 12.6305 112.42 15.1566 108.63C16.4196 108.63 16.4196 108.63 17.6827 109.894C21.4718 112.42 25.261 114.946 30.3132 117.472C34.1023 119.999 39.1545 122.525 44.2067 121.262C45.4697 121.262 46.7328 121.262 46.7328 121.262C44.2067 121.262 41.6806 119.999 39.1545 119.999C34.1023 118.736 30.3132 117.472 26.524 114.946C25.261 113.683 22.7349 112.42 20.2088 111.157C18.9457 109.894 16.4196 108.63 15.1566 106.104C12.6305 111.157 8.84134 114.946 8.84134 121.262Z" fill="#010101"/>
</svg>
